<svg id="visual" viewBox="0 0 900 600" width="900" height="600" xmlns="http://www.w3.org/2000/svg" xmlns:xlink="http://www.w3.org/1999/xlink" version="1.1"><rect x="0" y="0" width="900" height="600" fill="#001220"></rect><defs><linearGradient id="grad1_0" x1="33.3%" y1="100%" x2="100%" y2="0%"><stop offset="20%" stop-color="#46365d" stop-opacity="1"></stop><stop offset="80%" stop-color="#46365d" stop-opacity="1"></stop></linearGradient></defs><defs><linearGradient id="grad1_1" x1="33.3%" y1="100%" x2="100%" y2="0%"><stop offset="20%" stop-color="#46365d" stop-opacity="1"></stop><stop offset="80%" stop-color="#393255" stop-opacity="1"></stop></linearGradient></defs><defs><linearGradient id="grad1_2" x1="33.3%" y1="100%" x2="100%" y2="0%"><stop offset="20%" stop-color="#2d2d4d" stop-opacity="1"></stop><stop offset="80%" stop-color="#393255" stop-opacity="1"></stop></linearGradient></defs><defs><linearGradient id="grad1_3" x1="33.3%" y1="100%" x2="100%" y2="0%"><stop offset="20%" stop-color="#2d2d4d" stop-opacity="1"></stop><stop offset="80%" stop-color="#222845" stop-opacity="1"></stop></linearGradient></defs><defs><linearGradient id="grad1_4" x1="33.3%" y1="100%" x2="100%" y2="0%"><stop offset="20%" stop-color="#18233c" stop-opacity="1"></stop><stop offset="80%" stop-color="#222845" stop-opacity="1"></stop></linearGradient></defs><defs><linearGradient id="grad1_5" x1="33.3%" y1="100%" x2="100%" y2="0%"><stop offset="20%" stop-color="#18233c" stop-opacity="1"></stop><stop offset="80%" stop-color="#0f1e32" stop-opacity="1"></stop></linearGradient></defs><defs><linearGradient id="grad1_6" x1="33.3%" y1="100%" x2="100%" y2="0%"><stop offset="20%" stop-color="#071829" stop-opacity="1"></stop><stop offset="80%" stop-color="#0f1e32" stop-opacity="1"></stop></linearGradient></defs><defs><linearGradient id="grad1_7" x1="33.3%" y1="100%" x2="100%" y2="0%"><stop offset="20%" stop-color="#071829" stop-opacity="1"></stop><stop offset="80%" stop-color="#001220" stop-opacity="1"></stop></linearGradient></defs><defs><linearGradient id="grad2_0" x1="0%" y1="100%" x2="66.7%" y2="0%"><stop offset="20%" stop-color="#46365d" stop-opacity="1"></stop><stop offset="80%" stop-color="#46365d" stop-opacity="1"></stop></linearGradient></defs><defs><linearGradient id="grad2_1" x1="0%" y1="100%" x2="66.7%" y2="0%"><stop offset="20%" stop-color="#393255" stop-opacity="1"></stop><stop offset="80%" stop-color="#46365d" stop-opacity="1"></stop></linearGradient></defs><defs><linearGradient id="grad2_2" x1="0%" y1="100%" x2="66.7%" y2="0%"><stop offset="20%" stop-color="#393255" stop-opacity="1"></stop><stop offset="80%" stop-color="#2d2d4d" stop-opacity="1"></stop></linearGradient></defs><defs><linearGradient id="grad2_3" x1="0%" y1="100%" x2="66.7%" y2="0%"><stop offset="20%" stop-color="#222845" stop-opacity="1"></stop><stop offset="80%" stop-color="#2d2d4d" stop-opacity="1"></stop></linearGradient></defs><defs><linearGradient id="grad2_4" x1="0%" y1="100%" x2="66.7%" y2="0%"><stop offset="20%" stop-color="#222845" stop-opacity="1"></stop><stop offset="80%" stop-color="#18233c" stop-opacity="1"></stop></linearGradient></defs><defs><linearGradient id="grad2_5" x1="0%" y1="100%" x2="66.7%" y2="0%"><stop offset="20%" stop-color="#0f1e32" stop-opacity="1"></stop><stop offset="80%" stop-color="#18233c" stop-opacity="1"></stop></linearGradient></defs><defs><linearGradient id="grad2_6" x1="0%" y1="100%" x2="66.7%" y2="0%"><stop offset="20%" stop-color="#0f1e32" stop-opacity="1"></stop><stop offset="80%" stop-color="#071829" stop-opacity="1"></stop></linearGradient></defs><defs><linearGradient id="grad2_7" x1="0%" y1="100%" x2="66.7%" y2="0%"><stop offset="20%" stop-color="#001220" stop-opacity="1"></stop><stop offset="80%" stop-color="#071829" stop-opacity="1"></stop></linearGradient></defs><g transform="translate(900, 600)"><path d="M-324.5 0C-316.3 -57.3 -308.1 -114.5 -281 -162.2C-253.9 -210 -208 -248.2 -158 -273.7C-108 -299.1 -54 -311.8 0 -324.5L0 0Z" fill="#041525"></path><path d="M-283.9 0C-276.8 -50.1 -269.6 -100.2 -245.9 -142C-222.2 -183.7 -182 -217.2 -138.3 -239.5C-94.5 -261.7 -47.3 -272.8 0 -283.9L0 0Z" fill="#0b1b2e"></path><path d="M-243.4 0C-237.2 -42.9 -231.1 -85.9 -210.8 -121.7C-190.5 -157.5 -156 -186.2 -118.5 -205.2C-81 -224.3 -40.5 -233.9 0 -243.4L0 0Z" fill="#132037"></path><path d="M-202.8 0C-197.7 -35.8 -192.6 -71.6 -175.6 -101.4C-158.7 -131.2 -130 -155.1 -98.8 -171C-67.5 -186.9 -33.8 -194.9 0 -202.8L0 0Z" fill="#1d2540"></path><path d="M-162.2 0C-158.2 -28.6 -154.1 -57.3 -140.5 -81.1C-127 -105 -104 -124.1 -79 -136.8C-54 -149.6 -27 -155.9 0 -162.2L0 0Z" fill="#272b49"></path><path d="M-121.7 0C-118.6 -21.5 -115.5 -42.9 -105.4 -60.8C-95.2 -78.7 -78 -93.1 -59.3 -102.6C-40.5 -112.2 -20.3 -116.9 0 -121.7L0 0Z" fill="#332f51"></path><path d="M-81.1 0C-79.1 -14.3 -77 -28.6 -70.3 -40.6C-63.5 -52.5 -52 -62.1 -39.5 -68.4C-27 -74.8 -13.5 -78 0 -81.1L0 0Z" fill="#3f3459"></path><path d="M-40.6 0C-39.5 -7.2 -38.5 -14.3 -35.1 -20.3C-31.7 -26.2 -26 -31 -19.8 -34.2C-13.5 -37.4 -6.8 -39 0 -40.6L0 0Z" fill="#46365d"></path></g><g transform="translate(0, 0)"><path d="M324.5 0C317.6 59.6 310.8 119.1 281 162.2C251.3 205.4 198.7 232 148 256.3C97.3 280.6 48.7 302.6 0 324.5L0 0Z" fill="#041525"></path><path d="M283.9 0C277.9 52.1 271.9 104.2 245.9 142C219.9 179.7 173.8 203 129.5 224.3C85.2 245.6 42.6 264.8 0 283.9L0 0Z" fill="#0b1b2e"></path><path d="M243.4 0C238.2 44.7 233.1 89.3 210.8 121.7C188.5 154 149 174 111 192.3C73 210.5 36.5 226.9 0 243.4L0 0Z" fill="#132037"></path><path d="M202.8 0C198.5 37.2 194.2 74.5 175.6 101.4C157 128.4 124.2 145 92.5 160.2C60.8 175.4 30.4 189.1 0 202.8L0 0Z" fill="#1d2540"></path><path d="M162.2 0C158.8 29.8 155.4 59.6 140.5 81.1C125.6 102.7 99.3 116 74 128.2C48.7 140.3 24.3 151.3 0 162.2L0 0Z" fill="#272b49"></path><path d="M121.7 0C119.1 22.3 116.5 44.7 105.4 60.8C94.2 77 74.5 87 55.5 96.1C36.5 105.2 18.3 113.5 0 121.7L0 0Z" fill="#332f51"></path><path d="M81.1 0C79.4 14.9 77.7 29.8 70.3 40.6C62.8 51.3 49.7 58 37 64.1C24.3 70.2 12.2 75.6 0 81.1L0 0Z" fill="#3f3459"></path><path d="M40.6 0C39.7 7.4 38.8 14.9 35.1 20.3C31.4 25.7 24.8 29 18.5 32C12.2 35.1 6.1 37.8 0 40.6L0 0Z" fill="#46365d"></path></g></svg>