<svg width="100" height="100" xmlns="http://www.w3.org/2000/svg" version="1.0" preserveAspectRatio="xMidYMid meet">
 <g>
  <title>Layer 1</title>
  <ellipse stroke-width="3" ry="47" rx="47" id="svg_1" cy="50.44944" cx="50" stroke="#b3b3b3" fill="none"/>
  <g stroke-width="3" stroke="null">
   <g stroke="null" fill="none" stroke-linejoin="round" stroke-miterlimit="4">
    <path stroke="#b3b3b3" fill="none" d="m47.48202,21.56745c20.17065,2.00302 31.69674,16.02414 30.73623,58.08749l-44.18333,0c0,-18.02715 19.21014,-13.01961 15.36812,-42.06336"/>
    <path stroke="#b3b3b3" fill="none" d="m51.32405,37.59159c0.72999,5.82878 -10.66163,14.76223 -15.36812,18.02715c-5.76304,4.00603 -5.41726,8.69309 -9.60507,8.01207c-2.0017,-1.88284 2.70863,-6.08917 0,-6.00905c-1.92101,0 0.36499,2.46371 -1.92101,4.00603c-1.92101,0 -7.68982,2.00302 -7.68406,-8.01207c0,-4.00603 11.52609,-24.0362 11.52609,-24.0362c0,0 3.63072,-3.80573 3.84203,-7.01056c-1.40234,-1.991 -0.96051,-4.00603 -0.96051,-6.00905c1.92101,-2.00302 5.76304,5.00754 5.76304,5.00754l3.84203,0c0,0 1.49839,-3.99001 4.80254,-6.00905c1.92101,0 1.92101,6.00905 1.92101,6.00905"/>
    <path stroke="#b3b3b3" fill="none" d="m23.46934,52.61421a0.96051,1.00151 0 1 1 -1.92101,0a0.96051,1.00151 0 1 1 1.92101,0z"/>
    <path stroke="#b3b3b3" fill="none" d="m33.90621,33.0848a0.8318,2.60192 0 1 1 -1.6636,-1.00151a0.8318,2.60192 0 1 1 1.6636,1.00151z"/>
   </g>
  </g>
 </g>

</svg>