<svg id="visual" viewBox="0 0 900 600" width="900" height="600" xmlns="http://www.w3.org/2000/svg" xmlns:xlink="http://www.w3.org/1999/xlink" version="1.1"><rect x="0" y="0" width="900" height="600" fill="#001220"></rect><defs><linearGradient id="grad1_0" x1="33.3%" y1="0%" x2="100%" y2="100%"><stop offset="20%" stop-color="#291d30" stop-opacity="1"></stop><stop offset="80%" stop-color="#291d30" stop-opacity="1"></stop></linearGradient></defs><defs><linearGradient id="grad1_1" x1="33.3%" y1="0%" x2="100%" y2="100%"><stop offset="20%" stop-color="#291d30" stop-opacity="1"></stop><stop offset="80%" stop-color="#231c2f" stop-opacity="1"></stop></linearGradient></defs><defs><linearGradient id="grad1_2" x1="33.3%" y1="0%" x2="100%" y2="100%"><stop offset="20%" stop-color="#1e1a2d" stop-opacity="1"></stop><stop offset="80%" stop-color="#231c2f" stop-opacity="1"></stop></linearGradient></defs><defs><linearGradient id="grad1_3" x1="33.3%" y1="0%" x2="100%" y2="100%"><stop offset="20%" stop-color="#1e1a2d" stop-opacity="1"></stop><stop offset="80%" stop-color="#18192b" stop-opacity="1"></stop></linearGradient></defs><defs><linearGradient id="grad1_4" x1="33.3%" y1="0%" x2="100%" y2="100%"><stop offset="20%" stop-color="#121829" stop-opacity="1"></stop><stop offset="80%" stop-color="#18192b" stop-opacity="1"></stop></linearGradient></defs><defs><linearGradient id="grad1_5" x1="33.3%" y1="0%" x2="100%" y2="100%"><stop offset="20%" stop-color="#121829" stop-opacity="1"></stop><stop offset="80%" stop-color="#0d1626" stop-opacity="1"></stop></linearGradient></defs><defs><linearGradient id="grad1_6" x1="33.3%" y1="0%" x2="100%" y2="100%"><stop offset="20%" stop-color="#061423" stop-opacity="1"></stop><stop offset="80%" stop-color="#0d1626" stop-opacity="1"></stop></linearGradient></defs><defs><linearGradient id="grad1_7" x1="33.3%" y1="0%" x2="100%" y2="100%"><stop offset="20%" stop-color="#061423" stop-opacity="1"></stop><stop offset="80%" stop-color="#001220" stop-opacity="1"></stop></linearGradient></defs><defs><linearGradient id="grad2_0" x1="0%" y1="0%" x2="66.7%" y2="100%"><stop offset="20%" stop-color="#291d30" stop-opacity="1"></stop><stop offset="80%" stop-color="#291d30" stop-opacity="1"></stop></linearGradient></defs><defs><linearGradient id="grad2_1" x1="0%" y1="0%" x2="66.7%" y2="100%"><stop offset="20%" stop-color="#231c2f" stop-opacity="1"></stop><stop offset="80%" stop-color="#291d30" stop-opacity="1"></stop></linearGradient></defs><defs><linearGradient id="grad2_2" x1="0%" y1="0%" x2="66.7%" y2="100%"><stop offset="20%" stop-color="#231c2f" stop-opacity="1"></stop><stop offset="80%" stop-color="#1e1a2d" stop-opacity="1"></stop></linearGradient></defs><defs><linearGradient id="grad2_3" x1="0%" y1="0%" x2="66.7%" y2="100%"><stop offset="20%" stop-color="#18192b" stop-opacity="1"></stop><stop offset="80%" stop-color="#1e1a2d" stop-opacity="1"></stop></linearGradient></defs><defs><linearGradient id="grad2_4" x1="0%" y1="0%" x2="66.7%" y2="100%"><stop offset="20%" stop-color="#18192b" stop-opacity="1"></stop><stop offset="80%" stop-color="#121829" stop-opacity="1"></stop></linearGradient></defs><defs><linearGradient id="grad2_5" x1="0%" y1="0%" x2="66.7%" y2="100%"><stop offset="20%" stop-color="#0d1626" stop-opacity="1"></stop><stop offset="80%" stop-color="#121829" stop-opacity="1"></stop></linearGradient></defs><defs><linearGradient id="grad2_6" x1="0%" y1="0%" x2="66.7%" y2="100%"><stop offset="20%" stop-color="#0d1626" stop-opacity="1"></stop><stop offset="80%" stop-color="#061423" stop-opacity="1"></stop></linearGradient></defs><defs><linearGradient id="grad2_7" x1="0%" y1="0%" x2="66.7%" y2="100%"><stop offset="20%" stop-color="#001220" stop-opacity="1"></stop><stop offset="80%" stop-color="#061423" stop-opacity="1"></stop></linearGradient></defs><g transform="translate(900, 0)"><path d="M0 432.7C-65.2 434.8 -130.5 437 -165.6 399.7C-200.7 362.5 -205.7 285.8 -244.7 244.7C-283.6 203.5 -356.6 197.9 -393.6 163C-430.6 128.2 -431.6 64.1 -432.7 0L0 0Z" fill="#031322"></path><path d="M0 378.6C-57.1 380.5 -114.2 382.4 -144.9 349.8C-175.6 317.2 -180 250.1 -214.1 214.1C-248.2 178.1 -312 173.1 -344.4 142.6C-376.7 112.1 -377.7 56.1 -378.6 0L0 0Z" fill="#0a1525"></path><path d="M0 324.5C-48.9 326.1 -97.8 327.7 -124.2 299.8C-150.5 271.9 -154.3 214.4 -183.5 183.5C-212.7 152.6 -267.4 148.4 -295.2 122.3C-322.9 96.1 -323.7 48.1 -324.5 0L0 0Z" fill="#101727"></path><path d="M0 270.4C-40.8 271.8 -81.5 273.1 -103.5 249.8C-125.4 226.5 -128.6 178.6 -152.9 152.9C-177.3 127.2 -222.9 123.7 -246 101.9C-269.1 80.1 -269.8 40.1 -270.4 0L0 0Z" fill="#15182a"></path><path d="M0 216.3C-32.6 217.4 -65.2 218.5 -82.8 199.9C-100.3 181.2 -102.8 142.9 -122.3 122.3C-141.8 101.8 -178.3 98.9 -196.8 81.5C-215.3 64.1 -215.8 32 -216.3 0L0 0Z" fill="#1b1a2c"></path><path d="M0 162.2C-24.5 163.1 -48.9 163.9 -62.1 149.9C-75.3 135.9 -77.1 107.2 -91.7 91.7C-106.4 76.3 -133.7 74.2 -147.6 61.1C-161.5 48.1 -161.9 24 -162.2 0L0 0Z" fill="#211b2e"></path><path d="M0 108.2C-16.3 108.7 -32.6 109.2 -41.4 99.9C-50.2 90.6 -51.4 71.5 -61.2 61.2C-70.9 50.9 -89.1 49.5 -98.4 40.8C-107.6 32 -107.9 16 -108.2 0L0 0Z" fill="#261c2f"></path><path d="M0 54.1C-8.2 54.4 -16.3 54.6 -20.7 50C-25.1 45.3 -25.7 35.7 -30.6 30.6C-35.5 25.4 -44.6 24.7 -49.2 20.4C-53.8 16 -54 8 -54.1 0L0 0Z" fill="#291d30"></path></g><g transform="translate(0, 600)"><path d="M0 -432.7C64 -433.8 128 -434.9 165.6 -399.7C203.2 -364.6 214.4 -293.1 251 -251C287.7 -208.9 349.8 -196.1 384.3 -159.2C418.9 -122.2 425.8 -61.1 432.7 0L0 0Z" fill="#031322"></path><path d="M0 -378.6C56 -379.6 112 -380.5 144.9 -349.8C177.8 -319 187.6 -256.5 219.6 -219.6C251.7 -182.8 306.1 -171.6 336.3 -139.3C366.5 -107 372.5 -53.5 378.6 0L0 0Z" fill="#0a1525"></path><path d="M0 -324.5C48 -325.3 96 -326.2 124.2 -299.8C152.4 -273.4 160.8 -219.8 188.3 -188.3C215.8 -156.7 262.4 -147.1 288.3 -119.4C314.1 -91.7 319.3 -45.8 324.5 0L0 0Z" fill="#101727"></path><path d="M0 -270.4C40 -271.1 80 -271.8 103.5 -249.8C127 -227.9 134 -183.2 156.9 -156.9C179.8 -130.6 218.6 -122.6 240.2 -99.5C261.8 -76.4 266.1 -38.2 270.4 0L0 0Z" fill="#15182a"></path><path d="M0 -216.3C32 -216.9 64 -217.4 82.8 -199.9C101.6 -182.3 107.2 -146.6 125.5 -125.5C143.8 -104.5 174.9 -98.1 192.2 -79.6C209.4 -61.1 212.9 -30.6 216.3 0L0 0Z" fill="#1b1a2c"></path><path d="M0 -162.2C24 -162.7 48 -163.1 62.1 -149.9C76.2 -136.7 80.4 -109.9 94.1 -94.1C107.9 -78.3 131.2 -73.6 144.1 -59.7C157.1 -45.8 159.7 -22.9 162.2 0L0 0Z" fill="#211b2e"></path><path d="M0 -108.2C16 -108.4 32 -108.7 41.4 -99.9C50.8 -91.1 53.6 -73.3 62.8 -62.8C71.9 -52.2 87.5 -49 96.1 -39.8C104.7 -30.6 106.4 -15.3 108.2 0L0 0Z" fill="#261c2f"></path><path d="M0 -54.1C8 -54.2 16 -54.4 20.7 -50C25.4 -45.6 26.8 -36.6 31.4 -31.4C36 -26.1 43.7 -24.5 48 -19.9C52.4 -15.3 53.2 -7.6 54.1 0L0 0Z" fill="#291d30"></path></g></svg>