<svg id="visual" viewBox="0 0 960 300" width="960" height="300" xmlns="http://www.w3.org/2000/svg" xmlns:xlink="http://www.w3.org/1999/xlink" version="1.1"><path d="M0 188L20 192.8C40 197.7 80 207.3 120 210.2C160 213 200 209 240 204.2C280 199.3 320 193.7 360 196C400 198.3 440 208.7 480 210.3C520 212 560 205 600 203C640 201 680 204 720 204C760 204 800 201 840 202.5C880 204 920 210 940 213L960 216L960 301L940 301C920 301 880 301 840 301C800 301 760 301 720 301C680 301 640 301 600 301C560 301 520 301 480 301C440 301 400 301 360 301C320 301 280 301 240 301C200 301 160 301 120 301C80 301 40 301 20 301L0 301Z" fill="#46365d"></path><path d="M0 234L20 233C40 232 80 230 120 225.2C160 220.3 200 212.7 240 212.7C280 212.7 320 220.3 360 222.7C400 225 440 222 480 222.3C520 222.7 560 226.3 600 225C640 223.7 680 217.3 720 212.7C760 208 800 205 840 206C880 207 920 212 940 214.5L960 217L960 301L940 301C920 301 880 301 840 301C800 301 760 301 720 301C680 301 640 301 600 301C560 301 520 301 480 301C440 301 400 301 360 301C320 301 280 301 240 301C200 301 160 301 120 301C80 301 40 301 20 301L0 301Z" fill="#412f5a"></path><path d="M0 237L20 238.5C40 240 80 243 120 240.8C160 238.7 200 231.3 240 229.8C280 228.3 320 232.7 360 233.8C400 235 440 233 480 230.8C520 228.7 560 226.3 600 226.5C640 226.7 680 229.3 720 229C760 228.7 800 225.3 840 225.5C880 225.7 920 229.3 940 231.2L960 233L960 301L940 301C920 301 880 301 840 301C800 301 760 301 720 301C680 301 640 301 600 301C560 301 520 301 480 301C440 301 400 301 360 301C320 301 280 301 240 301C200 301 160 301 120 301C80 301 40 301 20 301L0 301Z" fill="#3b2856"></path><path d="M0 266L20 262.5C40 259 80 252 120 249.8C160 247.7 200 250.3 240 251.3C280 252.3 320 251.7 360 251.7C400 251.7 440 252.3 480 255C520 257.7 560 262.3 600 260.8C640 259.3 680 251.7 720 248C760 244.3 800 244.7 840 244.8C880 245 920 245 940 245L960 245L960 301L940 301C920 301 880 301 840 301C800 301 760 301 720 301C680 301 640 301 600 301C560 301 520 301 480 301C440 301 400 301 360 301C320 301 280 301 240 301C200 301 160 301 120 301C80 301 40 301 20 301L0 301Z" fill="#352152"></path><path d="M0 277L20 277.3C40 277.7 80 278.3 120 278C160 277.7 200 276.3 240 274.3C280 272.3 320 269.7 360 269.2C400 268.7 440 270.3 480 270.2C520 270 560 268 600 269.3C640 270.7 680 275.3 720 275.8C760 276.3 800 272.7 840 272.8C880 273 920 277 940 279L960 281L960 301L940 301C920 301 880 301 840 301C800 301 760 301 720 301C680 301 640 301 600 301C560 301 520 301 480 301C440 301 400 301 360 301C320 301 280 301 240 301C200 301 160 301 120 301C80 301 40 301 20 301L0 301Z" fill="#2f1a4e"></path></svg>