<svg id="visual" viewBox="0 0 960 300" width="960" height="300" xmlns="http://www.w3.org/2000/svg" xmlns:xlink="http://www.w3.org/1999/xlink" version="1.1"><path d="M0 82L20 84.3C40 86.7 80 91.3 120 91.3C160 91.3 200 86.7 240 85C280 83.3 320 84.7 360 87.5C400 90.3 440 94.7 480 94.3C520 94 560 89 600 90.5C640 92 680 100 720 105.3C760 110.7 800 113.3 840 111.2C880 109 920 102 940 98.5L960 95L960 0L940 0C920 0 880 0 840 0C800 0 760 0 720 0C680 0 640 0 600 0C560 0 520 0 480 0C440 0 400 0 360 0C320 0 280 0 240 0C200 0 160 0 120 0C80 0 40 0 20 0L0 0Z" fill="#46365d"></path><path d="M0 74L20 76C40 78 80 82 120 80.7C160 79.3 200 72.7 240 71.2C280 69.7 320 73.3 360 76.7C400 80 440 83 480 81.7C520 80.3 560 74.7 600 73.5C640 72.3 680 75.7 720 78.7C760 81.7 800 84.3 840 81.8C880 79.3 920 71.7 940 67.8L960 64L960 0L940 0C920 0 880 0 840 0C800 0 760 0 720 0C680 0 640 0 600 0C560 0 520 0 480 0C440 0 400 0 360 0C320 0 280 0 240 0C200 0 160 0 120 0C80 0 40 0 20 0L0 0Z" fill="#412f5a"></path><path d="M0 60L20 59C40 58 80 56 120 58.3C160 60.7 200 67.3 240 67.7C280 68 320 62 360 58C400 54 440 52 480 50.5C520 49 560 48 600 48.5C640 49 680 51 720 52.5C760 54 800 55 840 55.3C880 55.7 920 55.3 940 55.2L960 55L960 0L940 0C920 0 880 0 840 0C800 0 760 0 720 0C680 0 640 0 600 0C560 0 520 0 480 0C440 0 400 0 360 0C320 0 280 0 240 0C200 0 160 0 120 0C80 0 40 0 20 0L0 0Z" fill="#3b2856"></path><path d="M0 39L20 38.3C40 37.7 80 36.3 120 36.2C160 36 200 37 240 37.8C280 38.7 320 39.3 360 38.8C400 38.3 440 36.7 480 36.3C520 36 560 37 600 39.2C640 41.3 680 44.7 720 45.7C760 46.7 800 45.3 840 44.3C880 43.3 920 42.7 940 42.3L960 42L960 0L940 0C920 0 880 0 840 0C800 0 760 0 720 0C680 0 640 0 600 0C560 0 520 0 480 0C440 0 400 0 360 0C320 0 280 0 240 0C200 0 160 0 120 0C80 0 40 0 20 0L0 0Z" fill="#352152"></path><path d="M0 24L20 24C40 24 80 24 120 25C160 26 200 28 240 26.8C280 25.7 320 21.3 360 21.8C400 22.3 440 27.7 480 28.2C520 28.7 560 24.3 600 22.7C640 21 680 22 720 24C760 26 800 29 840 30.3C880 31.7 920 31.3 940 31.2L960 31L960 0L940 0C920 0 880 0 840 0C800 0 760 0 720 0C680 0 640 0 600 0C560 0 520 0 480 0C440 0 400 0 360 0C320 0 280 0 240 0C200 0 160 0 120 0C80 0 40 0 20 0L0 0Z" fill="#2f1a4e"></path></svg>